<?xml version="1.0" encoding="utf-8" standalone="no"?>
<!DOCTYPE svg PUBLIC "-//W3C//DTD SVG 1.1//EN"
  "http://www.w3.org/Graphics/SVG/1.1/DTD/svg11.dtd">
<svg xmlns:xlink="http://www.w3.org/1999/xlink" width="1288.8pt" height="784.94233pt" viewBox="0 0 1288.8 784.94233" xmlns="http://www.w3.org/2000/svg" version="1.1">
 <metadata>
  <rdf:RDF xmlns:dc="http://purl.org/dc/elements/1.1/" xmlns:cc="http://creativecommons.org/ns#" xmlns:rdf="http://www.w3.org/1999/02/22-rdf-syntax-ns#">
   <cc:Work>
    <dc:type rdf:resource="http://purl.org/dc/dcmitype/StillImage"/>
    <dc:date>2026-07-02T16:15:42.969040</dc:date>
    <dc:format>image/svg+xml</dc:format>
    <dc:creator>
     <cc:Agent>
      <dc:title>Matplotlib v3.10.9, https://matplotlib.org/</dc:title>
     </cc:Agent>
    </dc:creator>
   </cc:Work>
  </rdf:RDF>
 </metadata>
 <defs>
  <style type="text/css">*{stroke-linejoin: round; stroke-linecap: butt}</style>
 </defs>
 <g id="figure_1">
  <g id="patch_1">
   <path d="M 0 784.94233 
L 1288.8 784.94233 
L 1288.8 0 
L 0 0 
z
" style="fill: #ffffff"/>
  </g>
  <g id="axes_1">
   <g id="patch_2">
    <path d="M 211.319636 386.545968 
Q 206.61066 366.529919 210.782174 348.799339 
" clip-path="url(#p9678dc3606)" style="fill: none; stroke: #333333; stroke-width: 2.1; stroke-linecap: round"/>
    <path d="M 202.193413 359.106287 
L 210.782174 348.799339 
L 213.874476 361.854517 
z
" clip-path="url(#p9678dc3606)" style="fill: #333333; stroke: #333333; stroke-width: 2.1; stroke-linecap: round"/>
   </g>
   <g id="patch_3">
    <path d="M 210.020604 472.143567 
Q 186.640339 409.069883 209.20435 348.197692 
" clip-path="url(#p9678dc3606)" style="fill: none; stroke: #333333; stroke-width: 2.1; stroke-linecap: round"/>
    <path d="M 199.407601 357.364137 
L 209.20435 348.197692 
L 210.659457 361.534958 
z
" clip-path="url(#p9678dc3606)" style="fill: #333333; stroke: #333333; stroke-width: 2.1; stroke-linecap: round"/>
   </g>
   <g id="patch_4">
    <path d="M 1045.233051 282.652136 
Q 644.4021 302.721595 245.916084 322.673644 
" clip-path="url(#p9678dc3606)" style="fill: none; stroke: #333333; stroke-width: 2.1; stroke-linecap: round"/>
    <path d="M 258.201112 328.066053 
L 245.916084 322.673644 
L 257.601028 316.081067 
z
" clip-path="url(#p9678dc3606)" style="fill: #333333; stroke: #333333; stroke-width: 2.1; stroke-linecap: round"/>
   </g>
   <g id="patch_5">
    <path d="M 1045.233051 365.330425 
Q 644.4021 345.260966 245.916084 325.308917 
" clip-path="url(#p9678dc3606)" style="fill: none; stroke: #333333; stroke-width: 2.1; stroke-linecap: round"/>
    <path d="M 257.601028 331.901494 
L 245.916084 325.308917 
L 258.201112 319.916508 
z
" clip-path="url(#p9678dc3606)" style="fill: #333333; stroke: #333333; stroke-width: 2.1; stroke-linecap: round"/>
   </g>
   <g id="patch_6">
    <path d="M 622.118353 162.759708 
Q 431.999125 238.913309 244.059422 314.193886 
" clip-path="url(#p9678dc3606)" style="fill: none; stroke: #333333; stroke-width: 2.1; stroke-linecap: round"/>
    <path d="M 257.43002 315.301639 
L 244.059422 314.193886 
L 252.967982 304.162059 
z
" clip-path="url(#p9678dc3606)" style="fill: #333333; stroke: #333333; stroke-width: 2.1; stroke-linecap: round"/>
   </g>
   <g id="patch_7">
    <path d="M 1045.4664 448.043765 
Q 644.399296 387.799916 245.654016 327.904826 
" clip-path="url(#p9678dc3606)" style="fill: none; stroke: #333333; stroke-width: 2.1; stroke-linecap: round"/>
    <path d="M 256.629633 335.620772 
L 245.654016 327.904826 
L 258.412143 323.753899 
z
" clip-path="url(#p9678dc3606)" style="fill: #333333; stroke: #333333; stroke-width: 2.1; stroke-linecap: round"/>
   </g>
   <g id="patch_8">
    <path d="M 1045.920135 530.859013 
Q 644.399423 430.339038 245.156293 330.389252 
" clip-path="url(#p9678dc3606)" style="fill: none; stroke: #333333; stroke-width: 2.1; stroke-linecap: round"/>
    <path d="M 255.339928 339.123872 
L 245.156293 330.389252 
L 258.25417 327.483116 
z
" clip-path="url(#p9678dc3606)" style="fill: #333333; stroke: #333333; stroke-width: 2.1; stroke-linecap: round"/>
   </g>
   <g id="patch_9">
    <path d="M 623.829584 166.194076 
Q 432.001564 281.45118 242.186085 395.499078 
" clip-path="url(#p9678dc3606)" style="fill: none; stroke: #333333; stroke-width: 2.1; stroke-linecap: round"/>
    <path d="M 255.56234 394.461871 
L 242.186085 395.499078 
L 249.382072 384.17575 
z
" clip-path="url(#p9678dc3606)" style="fill: #333333; stroke: #333333; stroke-width: 2.1; stroke-linecap: round"/>
   </g>
   <g id="patch_10">
    <path d="M 625.670453 168.839142 
Q 431.999148 323.991963 240.160227 477.676836 
" clip-path="url(#p9678dc3606)" style="fill: none; stroke: #333333; stroke-width: 2.1; stroke-linecap: round"/>
    <path d="M 253.276911 474.856801 
L 240.160227 477.676836 
L 245.77421 465.491468 
z
" clip-path="url(#p9678dc3606)" style="fill: #333333; stroke: #333333; stroke-width: 2.1; stroke-linecap: round"/>
   </g>
   <g id="patch_11">
    <path d="M 667.388177 160.740695 
Q 856.802759 217.644207 1043.968746 273.872202 
" clip-path="url(#p9678dc3606)" style="fill: none; stroke: #333333; stroke-width: 2.1; stroke-linecap: round"/>
    <path d="M 1034.202442 264.673326 
L 1043.968746 273.872202 
L 1030.749863 276.165919 
z
" clip-path="url(#p9678dc3606)" style="fill: #333333; stroke: #333333; stroke-width: 2.1; stroke-linecap: round"/>
   </g>
   <g id="patch_12">
    <path d="M 243.566949 407.869586 
Q 644.3979 387.800127 1042.883916 367.848078 
" clip-path="url(#p9678dc3606)" style="fill: none; stroke: #333333; stroke-width: 2.1; stroke-linecap: round"/>
    <path d="M 1030.598888 362.455669 
L 1042.883916 367.848078 
L 1031.198972 374.440655 
z
" clip-path="url(#p9678dc3606)" style="fill: #333333; stroke: #333333; stroke-width: 2.1; stroke-linecap: round"/>
   </g>
   <g id="patch_13">
    <path d="M 1060.919636 303.975754 
Q 1056.21066 323.991803 1060.382174 341.722383 
" clip-path="url(#p9678dc3606)" style="fill: none; stroke: #333333; stroke-width: 2.1; stroke-linecap: round"/>
    <path d="M 1063.474476 328.667205 
L 1060.382174 341.722383 
L 1051.793413 331.415435 
z
" clip-path="url(#p9678dc3606)" style="fill: #333333; stroke: #333333; stroke-width: 2.1; stroke-linecap: round"/>
   </g>
   <g id="patch_14">
    <path d="M 665.858441 164.5788 
Q 856.800382 260.182731 1045.642908 354.735492 
" clip-path="url(#p9678dc3606)" style="fill: none; stroke: #333333; stroke-width: 2.1; stroke-linecap: round"/>
    <path d="M 1037.599042 343.997884 
L 1045.642908 354.735492 
L 1032.226502 354.72802 
z
" clip-path="url(#p9678dc3606)" style="fill: #333333; stroke: #333333; stroke-width: 2.1; stroke-linecap: round"/>
   </g>
   <g id="patch_15">
    <path d="M 240.170416 481.788485 
Q 431.998436 366.531381 621.813915 252.483483 
" clip-path="url(#p9678dc3606)" style="fill: none; stroke: #333333; stroke-width: 2.1; stroke-linecap: round"/>
    <path d="M 608.43766 253.52069 
L 621.813915 252.483483 
L 614.617928 263.806811 
z
" clip-path="url(#p9678dc3606)" style="fill: #333333; stroke: #333333; stroke-width: 2.1; stroke-linecap: round"/>
   </g>
   <g id="patch_16">
    <path d="M 1046.211823 359.624384 
Q 856.797241 302.720871 669.631254 246.492877 
" clip-path="url(#p9678dc3606)" style="fill: none; stroke: #333333; stroke-width: 2.1; stroke-linecap: round"/>
    <path d="M 679.397558 255.691753 
L 669.631254 246.492877 
L 682.850137 244.19916 
z
" clip-path="url(#p9678dc3606)" style="fill: #333333; stroke: #333333; stroke-width: 2.1; stroke-linecap: round"/>
   </g>
   <g id="patch_17">
    <path d="M 1059.620604 303.456477 
Q 1036.240339 366.530161 1058.80435 427.402352 
" clip-path="url(#p9678dc3606)" style="fill: none; stroke: #333333; stroke-width: 2.1; stroke-linecap: round"/>
    <path d="M 1060.259457 414.065086 
L 1058.80435 427.402352 
L 1049.007601 418.235907 
z
" clip-path="url(#p9678dc3606)" style="fill: #333333; stroke: #333333; stroke-width: 2.1; stroke-linecap: round"/>
   </g>
   <g id="patch_18">
    <path d="M 664.049982 167.608781 
Q 856.800091 302.721764 1047.627629 436.487073 
" clip-path="url(#p9678dc3606)" style="fill: none; stroke: #333333; stroke-width: 2.1; stroke-linecap: round"/>
    <path d="M 1041.245336 424.685957 
L 1047.627629 436.487073 
L 1034.357361 434.512238 
z
" clip-path="url(#p9678dc3606)" style="fill: #333333; stroke: #333333; stroke-width: 2.1; stroke-linecap: round"/>
   </g>
   <g id="patch_19">
    <path d="M 1060.919636 514.163451 
Q 1056.21066 494.147402 1060.382174 476.416822 
" clip-path="url(#p9678dc3606)" style="fill: none; stroke: #333333; stroke-width: 2.1; stroke-linecap: round"/>
    <path d="M 1051.793413 486.723769 
L 1060.382174 476.416822 
L 1063.474476 489.472 
z
" clip-path="url(#p9678dc3606)" style="fill: #333333; stroke: #333333; stroke-width: 2.1; stroke-linecap: round"/>
   </g>
   <g id="patch_20">
    <path d="M 243.3336 412.6346 
Q 644.400704 472.878449 1043.145984 532.77354 
" clip-path="url(#p9678dc3606)" style="fill: none; stroke: #333333; stroke-width: 2.1; stroke-linecap: round"/>
    <path d="M 1032.170367 525.057594 
L 1043.145984 532.77354 
L 1030.387857 536.924466 
z
" clip-path="url(#p9678dc3606)" style="fill: #333333; stroke: #333333; stroke-width: 2.1; stroke-linecap: round"/>
   </g>
   <g id="patch_21">
    <path d="M 1059.218922 303.281221 
Q 1015.372187 409.069964 1058.320242 512.689759 
" clip-path="url(#p9678dc3606)" style="fill: none; stroke: #333333; stroke-width: 2.1; stroke-linecap: round"/>
    <path d="M 1059.268306 499.306891 
L 1058.320242 512.689759 
L 1048.182785 503.901587 
z
" clip-path="url(#p9678dc3606)" style="fill: #333333; stroke: #333333; stroke-width: 2.1; stroke-linecap: round"/>
   </g>
   <g id="patch_22">
    <path d="M 636.119636 386.545968 
Q 631.41066 366.529919 635.582174 348.799339 
" clip-path="url(#p9678dc3606)" style="fill: none; stroke: #333333; stroke-width: 2.1; stroke-linecap: round"/>
    <path d="M 626.993413 359.106287 
L 635.582174 348.799339 
L 638.674476 361.854517 
z
" clip-path="url(#p9678dc3606)" style="fill: #333333; stroke: #333333; stroke-width: 2.1; stroke-linecap: round"/>
   </g>
   <g id="patch_23">
    <path d="M 634.820604 472.143567 
Q 611.440339 409.069883 634.00435 348.197692 
" clip-path="url(#p9678dc3606)" style="fill: none; stroke: #333333; stroke-width: 2.1; stroke-linecap: round"/>
    <path d="M 624.207601 357.364137 
L 634.00435 348.197692 
L 635.459457 361.534958 
z
" clip-path="url(#p9678dc3606)" style="fill: #333333; stroke: #333333; stroke-width: 2.1; stroke-linecap: round"/>
   </g>
   <g id="patch_24">
    <path d="M 634.418922 557.397144 
Q 590.572187 451.608401 633.520242 347.988606 
" clip-path="url(#p9678dc3606)" style="fill: none; stroke: #333333; stroke-width: 2.1; stroke-linecap: round"/>
    <path d="M 623.382785 356.776778 
L 633.520242 347.988606 
L 634.468306 361.371475 
z
" clip-path="url(#p9678dc3606)" style="fill: #333333; stroke: #333333; stroke-width: 2.1; stroke-linecap: round"/>
   </g>
   <g id="patch_25">
    <path d="M 243.599359 409.069602 
Q 431.999084 409.069602 618.050937 409.069602 
" clip-path="url(#p9678dc3606)" style="fill: none; stroke: #333333; stroke-width: 2.1; stroke-linecap: round"/>
    <path d="M 606.050937 403.069602 
L 618.050937 409.069602 
L 606.050937 415.069602 
z
" clip-path="url(#p9678dc3606)" style="fill: #333333; stroke: #333333; stroke-width: 2.1; stroke-linecap: round"/>
   </g>
   <g id="patch_26">
    <path d="M 636.119636 471.62429 
Q 631.41066 451.608241 635.582174 433.877661 
" clip-path="url(#p9678dc3606)" style="fill: none; stroke: #333333; stroke-width: 2.1; stroke-linecap: round"/>
    <path d="M 626.993413 444.184609 
L 635.582174 433.877661 
L 638.674476 446.932839 
z
" clip-path="url(#p9678dc3606)" style="fill: #333333; stroke: #333333; stroke-width: 2.1; stroke-linecap: round"/>
   </g>
   <g id="patch_27">
    <path d="M 634.820604 557.221888 
Q 611.440339 494.148205 634.00435 433.276013 
" clip-path="url(#p9678dc3606)" style="fill: none; stroke: #333333; stroke-width: 2.1; stroke-linecap: round"/>
    <path d="M 624.207601 442.442459 
L 634.00435 433.276013 
L 635.459457 446.613279 
z
" clip-path="url(#p9678dc3606)" style="fill: #333333; stroke: #333333; stroke-width: 2.1; stroke-linecap: round"/>
   </g>
   <g id="patch_28">
    <path d="M 243.13266 413.782689 
Q 431.999736 451.60871 618.564658 488.973659 
" clip-path="url(#p9678dc3606)" style="fill: none; stroke: #333333; stroke-width: 2.1; stroke-linecap: round"/>
    <path d="M 607.976593 480.733946 
L 618.564658 488.973659 
L 605.620048 492.500283 
z
" clip-path="url(#p9678dc3606)" style="fill: #333333; stroke: #333333; stroke-width: 2.1; stroke-linecap: round"/>
   </g>
   <g id="patch_29">
    <path d="M 636.119636 556.702612 
Q 631.41066 536.686562 635.582174 518.955983 
" clip-path="url(#p9678dc3606)" style="fill: none; stroke: #333333; stroke-width: 2.1; stroke-linecap: round"/>
    <path d="M 626.993413 529.26293 
L 635.582174 518.955983 
L 638.674476 532.011161 
z
" clip-path="url(#p9678dc3606)" style="fill: #333333; stroke: #333333; stroke-width: 2.1; stroke-linecap: round"/>
   </g>
   <g id="patch_30">
    <path d="M 241.881647 417.994673 
Q 432.000875 494.148274 619.940578 569.428851 
" clip-path="url(#p9678dc3606)" style="fill: none; stroke: #333333; stroke-width: 2.1; stroke-linecap: round"/>
    <path d="M 611.032018 559.397024 
L 619.940578 569.428851 
L 606.56998 570.536604 
z
" clip-path="url(#p9678dc3606)" style="fill: #333333; stroke: #333333; stroke-width: 2.1; stroke-linecap: round"/>
   </g>
   <g id="patch_31">
    <path d="M 238.329547 338.995786 
Q 432.000852 494.148606 623.839773 647.833479 
" clip-path="url(#p9678dc3606)" style="fill: none; stroke: #333333; stroke-width: 2.1; stroke-linecap: round"/>
    <path d="M 618.22579 635.648111 
L 623.839773 647.833479 
L 610.723089 645.013445 
z
" clip-path="url(#p9678dc3606)" style="fill: #333333; stroke: #333333; stroke-width: 2.1; stroke-linecap: round"/>
   </g>
   <g id="patch_32">
    <path d="M 634.034131 175.484588 
Q 527.148207 409.069993 633.057549 640.520429 
" clip-path="url(#p9678dc3606)" style="fill: none; stroke: #333333; stroke-width: 2.1; stroke-linecap: round"/>
    <path d="M 633.520324 627.112005 
L 633.057549 640.520429 
L 622.608475 632.105155 
z
" clip-path="url(#p9678dc3606)" style="fill: #333333; stroke: #333333; stroke-width: 2.1; stroke-linecap: round"/>
   </g>
   <g id="patch_33">
    <path d="M 634.418922 430.898704 
Q 590.572187 536.687447 633.520242 640.307242 
" clip-path="url(#p9678dc3606)" style="fill: none; stroke: #333333; stroke-width: 2.1; stroke-linecap: round"/>
    <path d="M 634.468306 626.924373 
L 633.520242 640.307242 
L 623.382785 631.51907 
z
" clip-path="url(#p9678dc3606)" style="fill: #333333; stroke: #333333; stroke-width: 2.1; stroke-linecap: round"/>
   </g>
   <g id="patch_34">
    <path d="M 634.820604 516.152281 
Q 611.440339 579.225965 634.00435 640.098156 
" clip-path="url(#p9678dc3606)" style="fill: none; stroke: #333333; stroke-width: 2.1; stroke-linecap: round"/>
    <path d="M 635.459457 626.76089 
L 634.00435 640.098156 
L 624.207601 630.931711 
z
" clip-path="url(#p9678dc3606)" style="fill: #333333; stroke: #333333; stroke-width: 2.1; stroke-linecap: round"/>
   </g>
   <g id="patch_35">
    <path d="M 636.119636 601.74988 
Q 631.41066 621.765929 635.582174 639.496509 
" clip-path="url(#p9678dc3606)" style="fill: none; stroke: #333333; stroke-width: 2.1; stroke-linecap: round"/>
    <path d="M 638.674476 626.441331 
L 635.582174 639.496509 
L 626.993413 629.189561 
z
" clip-path="url(#p9678dc3606)" style="fill: #333333; stroke: #333333; stroke-width: 2.1; stroke-linecap: round"/>
   </g>
   <g id="PathCollection_1">
    <defs>
     <path id="C0_0_fd55aeb63f" d="M 0 28.284271 
C 7.501076 28.284271 14.695938 25.304062 20 20 
C 25.304062 14.695938 28.284271 7.501076 28.284271 -0 
C 28.284271 -7.501076 25.304062 -14.695938 20 -20 
C 14.695938 -25.304062 7.501076 -28.284271 0 -28.284271 
C -7.501076 -28.284271 -14.695938 -25.304062 -20 -20 
C -25.304062 -14.695938 -28.284271 -7.501076 -28.284271 0 
C -28.284271 7.501076 -25.304062 14.695938 -20 20 
C -14.695938 25.304062 -7.501076 28.284271 0 28.284271 
z
"/>
    </defs>
    <g clip-path="url(#p9678dc3606)">
     <use xlink:href="#C0_0_fd55aeb63f" x="219.6" y="323.991281" style="fill: #f2f2f2; stroke: #000000; stroke-width: 1.5"/>
    </g>
    <g clip-path="url(#p9678dc3606)">
     <use xlink:href="#C0_0_fd55aeb63f" x="1069.2" y="281.45212" style="fill: #f2f2f2; stroke: #000000; stroke-width: 1.5"/>
    </g>
    <g clip-path="url(#p9678dc3606)">
     <use xlink:href="#C0_0_fd55aeb63f" x="644.4" y="494.147924" style="fill: #f2f2f2; stroke: #000000; stroke-width: 1.5"/>
    </g>
    <g clip-path="url(#p9678dc3606)">
     <use xlink:href="#C0_0_fd55aeb63f" x="1069.2" y="536.687085" style="fill: #f2f2f2; stroke: #000000; stroke-width: 1.5"/>
    </g>
    <g clip-path="url(#p9678dc3606)">
     <use xlink:href="#C0_0_fd55aeb63f" x="644.4" y="664.304567" style="fill: #f2f2f2; stroke: #000000; stroke-width: 1.5"/>
    </g>
    <g clip-path="url(#p9678dc3606)">
     <use xlink:href="#C0_0_fd55aeb63f" x="219.6" y="409.069602" style="fill: #f2f2f2; stroke: #000000; stroke-width: 1.5"/>
    </g>
    <g clip-path="url(#p9678dc3606)">
     <use xlink:href="#C0_0_fd55aeb63f" x="219.6" y="494.147924" style="fill: #f2f2f2; stroke: #000000; stroke-width: 1.5"/>
    </g>
    <g clip-path="url(#p9678dc3606)">
     <use xlink:href="#C0_0_fd55aeb63f" x="644.4" y="409.069602" style="fill: #f2f2f2; stroke: #000000; stroke-width: 1.5"/>
    </g>
    <g clip-path="url(#p9678dc3606)">
     <use xlink:href="#C0_0_fd55aeb63f" x="644.4" y="238.912959" style="fill: #f2f2f2; stroke: #000000; stroke-width: 1.5"/>
    </g>
    <g clip-path="url(#p9678dc3606)">
     <use xlink:href="#C0_0_fd55aeb63f" x="1069.2" y="451.608763" style="fill: #f2f2f2; stroke: #000000; stroke-width: 1.5"/>
    </g>
    <g clip-path="url(#p9678dc3606)">
     <use xlink:href="#C0_0_fd55aeb63f" x="644.4" y="323.991281" style="fill: #f2f2f2; stroke: #000000; stroke-width: 1.5"/>
    </g>
    <g clip-path="url(#p9678dc3606)">
     <use xlink:href="#C0_0_fd55aeb63f" x="644.4" y="579.226246" style="fill: #f2f2f2; stroke: #000000; stroke-width: 1.5"/>
    </g>
    <g clip-path="url(#p9678dc3606)">
     <use xlink:href="#C0_0_fd55aeb63f" x="644.4" y="153.834637" style="fill: #f2f2f2; stroke: #000000; stroke-width: 1.5"/>
    </g>
    <g clip-path="url(#p9678dc3606)">
     <use xlink:href="#C0_0_fd55aeb63f" x="1069.2" y="366.530441" style="fill: #f2f2f2; stroke: #000000; stroke-width: 1.5"/>
    </g>
   </g>
   <g id="line2d_1"/>
   <g id="line2d_2"/>
   <g id="line2d_3"/>
   <g id="text_1">
    <g clip-path="url(#p9678dc3606)">
     <!-- Age -->
     <g transform="translate(206.592187 327.208781) scale(0.12 -0.12)">
      <defs>
       <path id="DejaVuSans-Bold-41" d="M 3419 850 
L 1538 850 
L 1241 0 
L 31 0 
L 1759 4666 
L 3194 4666 
L 4922 0 
L 3713 0 
L 3419 850 
z
M 1838 1716 
L 3116 1716 
L 2478 3572 
L 1838 1716 
z
" transform="scale(0.015625)"/>
       <path id="DejaVuSans-Bold-67" d="M 2919 594 
Q 2688 288 2409 144 
Q 2131 0 1766 0 
Q 1125 0 706 504 
Q 288 1009 288 1791 
Q 288 2575 706 3076 
Q 1125 3578 1766 3578 
Q 2131 3578 2409 3434 
Q 2688 3291 2919 2981 
L 2919 3500 
L 4044 3500 
L 4044 353 
Q 4044 -491 3511 -936 
Q 2978 -1381 1966 -1381 
Q 1638 -1381 1331 -1331 
Q 1025 -1281 716 -1178 
L 716 -306 
Q 1009 -475 1290 -558 
Q 1572 -641 1856 -641 
Q 2406 -641 2662 -400 
Q 2919 -159 2919 353 
L 2919 594 
z
M 2181 2772 
Q 1834 2772 1640 2515 
Q 1447 2259 1447 1791 
Q 1447 1309 1634 1061 
Q 1822 813 2181 813 
Q 2531 813 2725 1069 
Q 2919 1325 2919 1791 
Q 2919 2259 2725 2515 
Q 2531 2772 2181 2772 
z
" transform="scale(0.015625)"/>
       <path id="DejaVuSans-Bold-65" d="M 4031 1759 
L 4031 1441 
L 1416 1441 
Q 1456 1047 1700 850 
Q 1944 653 2381 653 
Q 2734 653 3104 758 
Q 3475 863 3866 1075 
L 3866 213 
Q 3469 63 3072 -14 
Q 2675 -91 2278 -91 
Q 1328 -91 801 392 
Q 275 875 275 1747 
Q 275 2603 792 3093 
Q 1309 3584 2216 3584 
Q 3041 3584 3536 3087 
Q 4031 2591 4031 1759 
z
M 2881 2131 
Q 2881 2450 2695 2645 
Q 2509 2841 2209 2841 
Q 1884 2841 1681 2658 
Q 1478 2475 1428 2131 
L 2881 2131 
z
" transform="scale(0.015625)"/>
      </defs>
      <use xlink:href="#DejaVuSans-Bold-41"/>
      <use xlink:href="#DejaVuSans-Bold-67" transform="translate(77.392578 0)"/>
      <use xlink:href="#DejaVuSans-Bold-65" transform="translate(148.974609 0)"/>
     </g>
    </g>
   </g>
   <g id="text_2">
    <g clip-path="url(#p9678dc3606)">
     <!-- BMI -->
     <g transform="translate(1056.42375 284.76337) scale(0.12 -0.12)">
      <defs>
       <path id="DejaVuSans-Bold-42" d="M 2456 2859 
Q 2741 2859 2887 2984 
Q 3034 3109 3034 3353 
Q 3034 3594 2887 3720 
Q 2741 3847 2456 3847 
L 1791 3847 
L 1791 2859 
L 2456 2859 
z
M 2497 819 
Q 2859 819 3042 972 
Q 3225 1125 3225 1434 
Q 3225 1738 3044 1889 
Q 2863 2041 2497 2041 
L 1791 2041 
L 1791 819 
L 2497 819 
z
M 3616 2497 
Q 4003 2384 4215 2081 
Q 4428 1778 4428 1338 
Q 4428 663 3972 331 
Q 3516 0 2584 0 
L 588 0 
L 588 4666 
L 2394 4666 
Q 3366 4666 3802 4372 
Q 4238 4078 4238 3431 
Q 4238 3091 4078 2852 
Q 3919 2613 3616 2497 
z
" transform="scale(0.015625)"/>
       <path id="DejaVuSans-Bold-4d" d="M 588 4666 
L 2119 4666 
L 3181 2169 
L 4250 4666 
L 5778 4666 
L 5778 0 
L 4641 0 
L 4641 3413 
L 3566 897 
L 2803 897 
L 1728 3413 
L 1728 0 
L 588 0 
L 588 4666 
z
" transform="scale(0.015625)"/>
       <path id="DejaVuSans-Bold-49" d="M 588 4666 
L 1791 4666 
L 1791 0 
L 588 0 
L 588 4666 
z
" transform="scale(0.015625)"/>
      </defs>
      <use xlink:href="#DejaVuSans-Bold-42"/>
      <use xlink:href="#DejaVuSans-Bold-4d" transform="translate(76.220703 0)"/>
      <use xlink:href="#DejaVuSans-Bold-49" transform="translate(175.732422 0)"/>
     </g>
    </g>
   </g>
   <g id="text_3">
    <g clip-path="url(#p9678dc3606)">
     <!-- Carbs -->
     <g transform="translate(625.123125 497.459174) scale(0.12 -0.12)">
      <defs>
       <path id="DejaVuSans-Bold-43" d="M 4288 256 
Q 3956 84 3597 -3 
Q 3238 -91 2847 -91 
Q 1681 -91 1000 561 
Q 319 1213 319 2328 
Q 319 3447 1000 4098 
Q 1681 4750 2847 4750 
Q 3238 4750 3597 4662 
Q 3956 4575 4288 4403 
L 4288 3438 
Q 3953 3666 3628 3772 
Q 3303 3878 2944 3878 
Q 2300 3878 1931 3465 
Q 1563 3053 1563 2328 
Q 1563 1606 1931 1193 
Q 2300 781 2944 781 
Q 3303 781 3628 887 
Q 3953 994 4288 1222 
L 4288 256 
z
" transform="scale(0.015625)"/>
       <path id="DejaVuSans-Bold-61" d="M 2106 1575 
Q 1756 1575 1579 1456 
Q 1403 1338 1403 1106 
Q 1403 894 1545 773 
Q 1688 653 1941 653 
Q 2256 653 2472 879 
Q 2688 1106 2688 1447 
L 2688 1575 
L 2106 1575 
z
M 3816 1997 
L 3816 0 
L 2688 0 
L 2688 519 
Q 2463 200 2181 54 
Q 1900 -91 1497 -91 
Q 953 -91 614 226 
Q 275 544 275 1050 
Q 275 1666 698 1953 
Q 1122 2241 2028 2241 
L 2688 2241 
L 2688 2328 
Q 2688 2594 2478 2717 
Q 2269 2841 1825 2841 
Q 1466 2841 1156 2769 
Q 847 2697 581 2553 
L 581 3406 
Q 941 3494 1303 3539 
Q 1666 3584 2028 3584 
Q 2975 3584 3395 3211 
Q 3816 2838 3816 1997 
z
" transform="scale(0.015625)"/>
       <path id="DejaVuSans-Bold-72" d="M 3138 2547 
Q 2991 2616 2845 2648 
Q 2700 2681 2553 2681 
Q 2122 2681 1889 2404 
Q 1656 2128 1656 1613 
L 1656 0 
L 538 0 
L 538 3500 
L 1656 3500 
L 1656 2925 
Q 1872 3269 2151 3426 
Q 2431 3584 2822 3584 
Q 2878 3584 2943 3579 
Q 3009 3575 3134 3559 
L 3138 2547 
z
" transform="scale(0.015625)"/>
       <path id="DejaVuSans-Bold-62" d="M 2400 722 
Q 2759 722 2948 984 
Q 3138 1247 3138 1747 
Q 3138 2247 2948 2509 
Q 2759 2772 2400 2772 
Q 2041 2772 1848 2508 
Q 1656 2244 1656 1747 
Q 1656 1250 1848 986 
Q 2041 722 2400 722 
z
M 1656 2988 
Q 1888 3294 2169 3439 
Q 2450 3584 2816 3584 
Q 3463 3584 3878 3070 
Q 4294 2556 4294 1747 
Q 4294 938 3878 423 
Q 3463 -91 2816 -91 
Q 2450 -91 2169 54 
Q 1888 200 1656 506 
L 1656 0 
L 538 0 
L 538 4863 
L 1656 4863 
L 1656 2988 
z
" transform="scale(0.015625)"/>
       <path id="DejaVuSans-Bold-73" d="M 3272 3391 
L 3272 2541 
Q 2913 2691 2578 2766 
Q 2244 2841 1947 2841 
Q 1628 2841 1473 2761 
Q 1319 2681 1319 2516 
Q 1319 2381 1436 2309 
Q 1553 2238 1856 2203 
L 2053 2175 
Q 2913 2066 3209 1816 
Q 3506 1566 3506 1031 
Q 3506 472 3093 190 
Q 2681 -91 1863 -91 
Q 1516 -91 1145 -36 
Q 775 19 384 128 
L 384 978 
Q 719 816 1070 734 
Q 1422 653 1784 653 
Q 2113 653 2278 743 
Q 2444 834 2444 1013 
Q 2444 1163 2330 1236 
Q 2216 1309 1875 1350 
L 1678 1375 
Q 931 1469 631 1722 
Q 331 1975 331 2491 
Q 331 3047 712 3315 
Q 1094 3584 1881 3584 
Q 2191 3584 2531 3537 
Q 2872 3491 3272 3391 
z
" transform="scale(0.015625)"/>
      </defs>
      <use xlink:href="#DejaVuSans-Bold-43"/>
      <use xlink:href="#DejaVuSans-Bold-61" transform="translate(73.388672 0)"/>
      <use xlink:href="#DejaVuSans-Bold-72" transform="translate(140.869141 0)"/>
      <use xlink:href="#DejaVuSans-Bold-62" transform="translate(190.185547 0)"/>
      <use xlink:href="#DejaVuSans-Bold-73" transform="translate(261.767578 0)"/>
     </g>
    </g>
   </g>
   <g id="text_4">
    <g clip-path="url(#p9678dc3606)">
     <!-- DiaBP -->
     <g transform="translate(1049.142188 539.998335) scale(0.12 -0.12)">
      <defs>
       <path id="DejaVuSans-Bold-44" d="M 1791 3756 
L 1791 909 
L 2222 909 
Q 2959 909 3348 1275 
Q 3738 1641 3738 2338 
Q 3738 3031 3350 3393 
Q 2963 3756 2222 3756 
L 1791 3756 
z
M 588 4666 
L 1856 4666 
Q 2919 4666 3439 4514 
Q 3959 4363 4331 4000 
Q 4659 3684 4818 3271 
Q 4978 2859 4978 2338 
Q 4978 1809 4818 1395 
Q 4659 981 4331 666 
Q 3956 303 3431 151 
Q 2906 0 1856 0 
L 588 0 
L 588 4666 
z
" transform="scale(0.015625)"/>
       <path id="DejaVuSans-Bold-69" d="M 538 3500 
L 1656 3500 
L 1656 0 
L 538 0 
L 538 3500 
z
M 538 4863 
L 1656 4863 
L 1656 3950 
L 538 3950 
L 538 4863 
z
" transform="scale(0.015625)"/>
       <path id="DejaVuSans-Bold-50" d="M 588 4666 
L 2584 4666 
Q 3475 4666 3951 4270 
Q 4428 3875 4428 3144 
Q 4428 2409 3951 2014 
Q 3475 1619 2584 1619 
L 1791 1619 
L 1791 0 
L 588 0 
L 588 4666 
z
M 1791 3794 
L 1791 2491 
L 2456 2491 
Q 2806 2491 2997 2661 
Q 3188 2831 3188 3144 
Q 3188 3456 2997 3625 
Q 2806 3794 2456 3794 
L 1791 3794 
z
" transform="scale(0.015625)"/>
      </defs>
      <use xlink:href="#DejaVuSans-Bold-44"/>
      <use xlink:href="#DejaVuSans-Bold-69" transform="translate(83.007812 0)"/>
      <use xlink:href="#DejaVuSans-Bold-61" transform="translate(117.285156 0)"/>
      <use xlink:href="#DejaVuSans-Bold-42" transform="translate(184.765625 0)"/>
      <use xlink:href="#DejaVuSans-Bold-50" transform="translate(260.986328 0)"/>
     </g>
    </g>
   </g>
   <g id="text_5">
    <g clip-path="url(#p9678dc3606)">
     <!-- Fiber -->
     <g transform="translate(626.92125 667.615817) scale(0.12 -0.12)">
      <defs>
       <path id="DejaVuSans-Bold-46" d="M 588 4666 
L 3834 4666 
L 3834 3756 
L 1791 3756 
L 1791 2888 
L 3713 2888 
L 3713 1978 
L 1791 1978 
L 1791 0 
L 588 0 
L 588 4666 
z
" transform="scale(0.015625)"/>
      </defs>
      <use xlink:href="#DejaVuSans-Bold-46"/>
      <use xlink:href="#DejaVuSans-Bold-69" transform="translate(68.310547 0)"/>
      <use xlink:href="#DejaVuSans-Bold-62" transform="translate(102.587891 0)"/>
      <use xlink:href="#DejaVuSans-Bold-65" transform="translate(174.169922 0)"/>
      <use xlink:href="#DejaVuSans-Bold-72" transform="translate(241.992188 0)"/>
     </g>
    </g>
   </g>
   <g id="text_6">
    <g clip-path="url(#p9678dc3606)">
     <!-- Gender -->
     <g transform="translate(195.01125 412.380852) scale(0.12 -0.12)">
      <defs>
       <path id="DejaVuSans-Bold-47" d="M 4781 347 
Q 4331 128 3847 18 
Q 3363 -91 2847 -91 
Q 1681 -91 1000 561 
Q 319 1213 319 2328 
Q 319 3456 1012 4103 
Q 1706 4750 2913 4750 
Q 3378 4750 3804 4662 
Q 4231 4575 4609 4403 
L 4609 3438 
Q 4219 3659 3833 3768 
Q 3447 3878 3059 3878 
Q 2341 3878 1952 3476 
Q 1563 3075 1563 2328 
Q 1563 1588 1938 1184 
Q 2313 781 3003 781 
Q 3191 781 3352 804 
Q 3513 828 3641 878 
L 3641 1784 
L 2906 1784 
L 2906 2591 
L 4781 2591 
L 4781 347 
z
" transform="scale(0.015625)"/>
       <path id="DejaVuSans-Bold-6e" d="M 4056 2131 
L 4056 0 
L 2931 0 
L 2931 347 
L 2931 1631 
Q 2931 2084 2911 2256 
Q 2891 2428 2841 2509 
Q 2775 2619 2662 2680 
Q 2550 2741 2406 2741 
Q 2056 2741 1856 2470 
Q 1656 2200 1656 1722 
L 1656 0 
L 538 0 
L 538 3500 
L 1656 3500 
L 1656 2988 
Q 1909 3294 2193 3439 
Q 2478 3584 2822 3584 
Q 3428 3584 3742 3212 
Q 4056 2841 4056 2131 
z
" transform="scale(0.015625)"/>
       <path id="DejaVuSans-Bold-64" d="M 2919 2988 
L 2919 4863 
L 4044 4863 
L 4044 0 
L 2919 0 
L 2919 506 
Q 2688 197 2409 53 
Q 2131 -91 1766 -91 
Q 1119 -91 703 423 
Q 288 938 288 1747 
Q 288 2556 703 3070 
Q 1119 3584 1766 3584 
Q 2128 3584 2408 3439 
Q 2688 3294 2919 2988 
z
M 2181 722 
Q 2541 722 2730 984 
Q 2919 1247 2919 1747 
Q 2919 2247 2730 2509 
Q 2541 2772 2181 2772 
Q 1825 2772 1636 2509 
Q 1447 2247 1447 1747 
Q 1447 1247 1636 984 
Q 1825 722 2181 722 
z
" transform="scale(0.015625)"/>
      </defs>
      <use xlink:href="#DejaVuSans-Bold-47"/>
      <use xlink:href="#DejaVuSans-Bold-65" transform="translate(82.080078 0)"/>
      <use xlink:href="#DejaVuSans-Bold-6e" transform="translate(149.902344 0)"/>
      <use xlink:href="#DejaVuSans-Bold-64" transform="translate(221.09375 0)"/>
      <use xlink:href="#DejaVuSans-Bold-65" transform="translate(292.675781 0)"/>
      <use xlink:href="#DejaVuSans-Bold-72" transform="translate(360.498047 0)"/>
     </g>
    </g>
   </g>
   <g id="text_7">
    <g clip-path="url(#p9678dc3606)">
     <!-- Income -->
     <g transform="translate(195.095625 497.459174) scale(0.12 -0.12)">
      <defs>
       <path id="DejaVuSans-Bold-63" d="M 3366 3391 
L 3366 2478 
Q 3138 2634 2908 2709 
Q 2678 2784 2431 2784 
Q 1963 2784 1702 2511 
Q 1441 2238 1441 1747 
Q 1441 1256 1702 982 
Q 1963 709 2431 709 
Q 2694 709 2930 787 
Q 3166 866 3366 1019 
L 3366 103 
Q 3103 6 2833 -42 
Q 2563 -91 2291 -91 
Q 1344 -91 809 395 
Q 275 881 275 1747 
Q 275 2613 809 3098 
Q 1344 3584 2291 3584 
Q 2566 3584 2833 3536 
Q 3100 3488 3366 3391 
z
" transform="scale(0.015625)"/>
       <path id="DejaVuSans-Bold-6f" d="M 2203 2784 
Q 1831 2784 1636 2517 
Q 1441 2250 1441 1747 
Q 1441 1244 1636 976 
Q 1831 709 2203 709 
Q 2569 709 2762 976 
Q 2956 1244 2956 1747 
Q 2956 2250 2762 2517 
Q 2569 2784 2203 2784 
z
M 2203 3584 
Q 3106 3584 3614 3096 
Q 4122 2609 4122 1747 
Q 4122 884 3614 396 
Q 3106 -91 2203 -91 
Q 1297 -91 786 396 
Q 275 884 275 1747 
Q 275 2609 786 3096 
Q 1297 3584 2203 3584 
z
" transform="scale(0.015625)"/>
       <path id="DejaVuSans-Bold-6d" d="M 3781 2919 
Q 3994 3244 4286 3414 
Q 4578 3584 4928 3584 
Q 5531 3584 5847 3212 
Q 6163 2841 6163 2131 
L 6163 0 
L 5038 0 
L 5038 1825 
Q 5041 1866 5042 1909 
Q 5044 1953 5044 2034 
Q 5044 2406 4934 2573 
Q 4825 2741 4581 2741 
Q 4263 2741 4089 2478 
Q 3916 2216 3909 1719 
L 3909 0 
L 2784 0 
L 2784 1825 
Q 2784 2406 2684 2573 
Q 2584 2741 2328 2741 
Q 2006 2741 1831 2477 
Q 1656 2213 1656 1722 
L 1656 0 
L 531 0 
L 531 3500 
L 1656 3500 
L 1656 2988 
Q 1863 3284 2130 3434 
Q 2397 3584 2719 3584 
Q 3081 3584 3359 3409 
Q 3638 3234 3781 2919 
z
" transform="scale(0.015625)"/>
      </defs>
      <use xlink:href="#DejaVuSans-Bold-49"/>
      <use xlink:href="#DejaVuSans-Bold-6e" transform="translate(37.207031 0)"/>
      <use xlink:href="#DejaVuSans-Bold-63" transform="translate(108.398438 0)"/>
      <use xlink:href="#DejaVuSans-Bold-6f" transform="translate(167.675781 0)"/>
      <use xlink:href="#DejaVuSans-Bold-6d" transform="translate(236.376953 0)"/>
      <use xlink:href="#DejaVuSans-Bold-65" transform="translate(340.576172 0)"/>
     </g>
    </g>
   </g>
   <g id="text_8">
    <g clip-path="url(#p9678dc3606)">
     <!-- Protein -->
     <g transform="translate(619.655625 412.380852) scale(0.12 -0.12)">
      <defs>
       <path id="DejaVuSans-Bold-74" d="M 1759 4494 
L 1759 3500 
L 2913 3500 
L 2913 2700 
L 1759 2700 
L 1759 1216 
Q 1759 972 1856 886 
Q 1953 800 2241 800 
L 2816 800 
L 2816 0 
L 1856 0 
Q 1194 0 917 276 
Q 641 553 641 1216 
L 641 2700 
L 84 2700 
L 84 3500 
L 641 3500 
L 641 4494 
L 1759 4494 
z
" transform="scale(0.015625)"/>
      </defs>
      <use xlink:href="#DejaVuSans-Bold-50"/>
      <use xlink:href="#DejaVuSans-Bold-72" transform="translate(73.291016 0)"/>
      <use xlink:href="#DejaVuSans-Bold-6f" transform="translate(122.607422 0)"/>
      <use xlink:href="#DejaVuSans-Bold-74" transform="translate(191.308594 0)"/>
      <use xlink:href="#DejaVuSans-Bold-65" transform="translate(239.111328 0)"/>
      <use xlink:href="#DejaVuSans-Bold-69" transform="translate(306.933594 0)"/>
      <use xlink:href="#DejaVuSans-Bold-6e" transform="translate(341.210938 0)"/>
     </g>
    </g>
   </g>
   <g id="text_9">
    <g clip-path="url(#p9678dc3606)">
     <!-- Sedentary -->
     <g transform="translate(609.586875 242.177334) scale(0.12 -0.12)">
      <defs>
       <path id="DejaVuSans-Bold-53" d="M 3834 4519 
L 3834 3531 
Q 3450 3703 3084 3790 
Q 2719 3878 2394 3878 
Q 1963 3878 1756 3759 
Q 1550 3641 1550 3391 
Q 1550 3203 1689 3098 
Q 1828 2994 2194 2919 
L 2706 2816 
Q 3484 2659 3812 2340 
Q 4141 2022 4141 1434 
Q 4141 663 3683 286 
Q 3225 -91 2284 -91 
Q 1841 -91 1394 -6 
Q 947 78 500 244 
L 500 1259 
Q 947 1022 1364 901 
Q 1781 781 2169 781 
Q 2563 781 2772 912 
Q 2981 1044 2981 1288 
Q 2981 1506 2839 1625 
Q 2697 1744 2272 1838 
L 1806 1941 
Q 1106 2091 782 2419 
Q 459 2747 459 3303 
Q 459 4000 909 4375 
Q 1359 4750 2203 4750 
Q 2588 4750 2994 4692 
Q 3400 4634 3834 4519 
z
" transform="scale(0.015625)"/>
       <path id="DejaVuSans-Bold-79" d="M 78 3500 
L 1197 3500 
L 2138 1125 
L 2938 3500 
L 4056 3500 
L 2584 -331 
Q 2363 -916 2067 -1148 
Q 1772 -1381 1288 -1381 
L 641 -1381 
L 641 -647 
L 991 -647 
Q 1275 -647 1404 -556 
Q 1534 -466 1606 -231 
L 1638 -134 
L 78 3500 
z
" transform="scale(0.015625)"/>
      </defs>
      <use xlink:href="#DejaVuSans-Bold-53"/>
      <use xlink:href="#DejaVuSans-Bold-65" transform="translate(72.021484 0)"/>
      <use xlink:href="#DejaVuSans-Bold-64" transform="translate(139.84375 0)"/>
      <use xlink:href="#DejaVuSans-Bold-65" transform="translate(211.425781 0)"/>
      <use xlink:href="#DejaVuSans-Bold-6e" transform="translate(279.248047 0)"/>
      <use xlink:href="#DejaVuSans-Bold-74" transform="translate(350.439453 0)"/>
      <use xlink:href="#DejaVuSans-Bold-61" transform="translate(398.242188 0)"/>
      <use xlink:href="#DejaVuSans-Bold-72" transform="translate(465.722656 0)"/>
      <use xlink:href="#DejaVuSans-Bold-79" transform="translate(515.039062 0)"/>
     </g>
    </g>
   </g>
   <g id="text_10">
    <g clip-path="url(#p9678dc3606)">
     <!-- SysBP -->
     <g transform="translate(1048.425938 454.826263) scale(0.12 -0.12)">
      <use xlink:href="#DejaVuSans-Bold-53"/>
      <use xlink:href="#DejaVuSans-Bold-79" transform="translate(72.021484 0)"/>
      <use xlink:href="#DejaVuSans-Bold-73" transform="translate(137.207031 0)"/>
      <use xlink:href="#DejaVuSans-Bold-42" transform="translate(196.728516 0)"/>
      <use xlink:href="#DejaVuSans-Bold-50" transform="translate(272.949219 0)"/>
     </g>
    </g>
   </g>
   <g id="text_11">
    <g clip-path="url(#p9678dc3606)">
     <!-- Calories -->
     <g transform="translate(617.112188 327.302531) scale(0.12 -0.12)">
      <defs>
       <path id="DejaVuSans-Bold-6c" d="M 538 4863 
L 1656 4863 
L 1656 0 
L 538 0 
L 538 4863 
z
" transform="scale(0.015625)"/>
      </defs>
      <use xlink:href="#DejaVuSans-Bold-43"/>
      <use xlink:href="#DejaVuSans-Bold-61" transform="translate(73.388672 0)"/>
      <use xlink:href="#DejaVuSans-Bold-6c" transform="translate(140.869141 0)"/>
      <use xlink:href="#DejaVuSans-Bold-6f" transform="translate(175.146484 0)"/>
      <use xlink:href="#DejaVuSans-Bold-72" transform="translate(243.847656 0)"/>
      <use xlink:href="#DejaVuSans-Bold-69" transform="translate(293.164062 0)"/>
      <use xlink:href="#DejaVuSans-Bold-65" transform="translate(327.441406 0)"/>
      <use xlink:href="#DejaVuSans-Bold-73" transform="translate(395.263672 0)"/>
     </g>
    </g>
   </g>
   <g id="text_12">
    <g clip-path="url(#p9678dc3606)">
     <!-- Sugars -->
     <g transform="translate(620.934375 582.443746) scale(0.12 -0.12)">
      <defs>
       <path id="DejaVuSans-Bold-75" d="M 500 1363 
L 500 3500 
L 1625 3500 
L 1625 3150 
Q 1625 2866 1622 2436 
Q 1619 2006 1619 1863 
Q 1619 1441 1641 1255 
Q 1663 1069 1716 984 
Q 1784 875 1895 815 
Q 2006 756 2150 756 
Q 2500 756 2700 1025 
Q 2900 1294 2900 1772 
L 2900 3500 
L 4019 3500 
L 4019 0 
L 2900 0 
L 2900 506 
Q 2647 200 2364 54 
Q 2081 -91 1741 -91 
Q 1134 -91 817 281 
Q 500 653 500 1363 
z
" transform="scale(0.015625)"/>
      </defs>
      <use xlink:href="#DejaVuSans-Bold-53"/>
      <use xlink:href="#DejaVuSans-Bold-75" transform="translate(72.021484 0)"/>
      <use xlink:href="#DejaVuSans-Bold-67" transform="translate(143.212891 0)"/>
      <use xlink:href="#DejaVuSans-Bold-61" transform="translate(214.794922 0)"/>
      <use xlink:href="#DejaVuSans-Bold-72" transform="translate(282.275391 0)"/>
      <use xlink:href="#DejaVuSans-Bold-73" transform="translate(331.591797 0)"/>
     </g>
    </g>
   </g>
   <g id="text_13">
    <g clip-path="url(#p9678dc3606)">
     <!-- Vigorous -->
     <g transform="translate(614.464687 157.099012) scale(0.12 -0.12)">
      <defs>
       <path id="DejaVuSans-Bold-56" d="M 31 4666 
L 1241 4666 
L 2478 1222 
L 3713 4666 
L 4922 4666 
L 3194 0 
L 1759 0 
L 31 4666 
z
" transform="scale(0.015625)"/>
      </defs>
      <use xlink:href="#DejaVuSans-Bold-56"/>
      <use xlink:href="#DejaVuSans-Bold-69" transform="translate(75.642578 0)"/>
      <use xlink:href="#DejaVuSans-Bold-67" transform="translate(109.919922 0)"/>
      <use xlink:href="#DejaVuSans-Bold-6f" transform="translate(181.501953 0)"/>
      <use xlink:href="#DejaVuSans-Bold-72" transform="translate(250.203125 0)"/>
      <use xlink:href="#DejaVuSans-Bold-6f" transform="translate(299.519531 0)"/>
      <use xlink:href="#DejaVuSans-Bold-75" transform="translate(368.220703 0)"/>
      <use xlink:href="#DejaVuSans-Bold-73" transform="translate(439.412109 0)"/>
     </g>
    </g>
   </g>
   <g id="text_14">
    <g clip-path="url(#p9678dc3606)">
     <!-- Waist -->
     <g transform="translate(1050.255 369.841691) scale(0.12 -0.12)">
      <defs>
       <path id="DejaVuSans-Bold-57" d="M 191 4666 
L 1344 4666 
L 2150 1275 
L 2950 4666 
L 4109 4666 
L 4909 1275 
L 5716 4666 
L 6859 4666 
L 5759 0 
L 4372 0 
L 3525 3547 
L 2688 0 
L 1300 0 
L 191 4666 
z
" transform="scale(0.015625)"/>
      </defs>
      <use xlink:href="#DejaVuSans-Bold-57"/>
      <use xlink:href="#DejaVuSans-Bold-61" transform="translate(106.677734 0)"/>
      <use xlink:href="#DejaVuSans-Bold-69" transform="translate(174.158203 0)"/>
      <use xlink:href="#DejaVuSans-Bold-73" transform="translate(208.435547 0)"/>
      <use xlink:href="#DejaVuSans-Bold-74" transform="translate(267.957031 0)"/>
     </g>
    </g>
   </g>
   <g id="text_15">
    <g id="patch_36">
     <path d="M 161.502187 262.510302 
L 277.697812 262.510302 
L 277.697812 245.771552 
L 161.502187 245.771552 
z
" style="fill: #ffffff; opacity: 0.85"/>
    </g>
    <!-- Demographics -->
    <g transform="translate(163.042187 257.949364) scale(0.14 -0.14)">
     <defs>
      <path id="DejaVuSans-Bold-70" d="M 1656 506 
L 1656 -1331 
L 538 -1331 
L 538 3500 
L 1656 3500 
L 1656 2988 
Q 1888 3294 2169 3439 
Q 2450 3584 2816 3584 
Q 3463 3584 3878 3070 
Q 4294 2556 4294 1747 
Q 4294 938 3878 423 
Q 3463 -91 2816 -91 
Q 2450 -91 2169 54 
Q 1888 200 1656 506 
z
M 2400 2772 
Q 2041 2772 1848 2508 
Q 1656 2244 1656 1747 
Q 1656 1250 1848 986 
Q 2041 722 2400 722 
Q 2759 722 2948 984 
Q 3138 1247 3138 1747 
Q 3138 2247 2948 2509 
Q 2759 2772 2400 2772 
z
" transform="scale(0.015625)"/>
      <path id="DejaVuSans-Bold-68" d="M 4056 2131 
L 4056 0 
L 2931 0 
L 2931 347 
L 2931 1625 
Q 2931 2084 2911 2256 
Q 2891 2428 2841 2509 
Q 2775 2619 2662 2680 
Q 2550 2741 2406 2741 
Q 2056 2741 1856 2470 
Q 1656 2200 1656 1722 
L 1656 0 
L 538 0 
L 538 4863 
L 1656 4863 
L 1656 2988 
Q 1909 3294 2193 3439 
Q 2478 3584 2822 3584 
Q 3428 3584 3742 3212 
Q 4056 2841 4056 2131 
z
" transform="scale(0.015625)"/>
     </defs>
     <use xlink:href="#DejaVuSans-Bold-44"/>
     <use xlink:href="#DejaVuSans-Bold-65" transform="translate(83.007812 0)"/>
     <use xlink:href="#DejaVuSans-Bold-6d" transform="translate(150.830078 0)"/>
     <use xlink:href="#DejaVuSans-Bold-6f" transform="translate(255.029297 0)"/>
     <use xlink:href="#DejaVuSans-Bold-67" transform="translate(323.730469 0)"/>
     <use xlink:href="#DejaVuSans-Bold-72" transform="translate(395.3125 0)"/>
     <use xlink:href="#DejaVuSans-Bold-61" transform="translate(444.628906 0)"/>
     <use xlink:href="#DejaVuSans-Bold-70" transform="translate(512.109375 0)"/>
     <use xlink:href="#DejaVuSans-Bold-68" transform="translate(583.691406 0)"/>
     <use xlink:href="#DejaVuSans-Bold-69" transform="translate(654.882812 0)"/>
     <use xlink:href="#DejaVuSans-Bold-63" transform="translate(689.160156 0)"/>
     <use xlink:href="#DejaVuSans-Bold-73" transform="translate(748.4375 0)"/>
    </g>
   </g>
   <g id="text_16">
    <g id="patch_37">
     <path d="M 584.110312 92.353658 
L 704.689687 92.353658 
L 704.689687 75.724283 
L 584.110312 75.724283 
z
" style="fill: #ffffff; opacity: 0.85"/>
    </g>
    <!-- Behavior / Diet -->
    <g transform="translate(585.650312 87.902096) scale(0.14 -0.14)">
     <defs>
      <path id="DejaVuSans-Bold-76" d="M 97 3500 
L 1216 3500 
L 2088 1081 
L 2956 3500 
L 4078 3500 
L 2700 0 
L 1472 0 
L 97 3500 
z
" transform="scale(0.015625)"/>
      <path id="DejaVuSans-Bold-20" transform="scale(0.015625)"/>
      <path id="DejaVuSans-Bold-2f" d="M 1644 4666 
L 2338 4666 
L 691 -594 
L 0 -594 
L 1644 4666 
z
" transform="scale(0.015625)"/>
     </defs>
     <use xlink:href="#DejaVuSans-Bold-42"/>
     <use xlink:href="#DejaVuSans-Bold-65" transform="translate(76.220703 0)"/>
     <use xlink:href="#DejaVuSans-Bold-68" transform="translate(144.042969 0)"/>
     <use xlink:href="#DejaVuSans-Bold-61" transform="translate(215.234375 0)"/>
     <use xlink:href="#DejaVuSans-Bold-76" transform="translate(282.714844 0)"/>
     <use xlink:href="#DejaVuSans-Bold-69" transform="translate(347.900391 0)"/>
     <use xlink:href="#DejaVuSans-Bold-6f" transform="translate(382.177734 0)"/>
     <use xlink:href="#DejaVuSans-Bold-72" transform="translate(450.878906 0)"/>
     <use xlink:href="#DejaVuSans-Bold-20" transform="translate(500.195312 0)"/>
     <use xlink:href="#DejaVuSans-Bold-2f" transform="translate(535.009766 0)"/>
     <use xlink:href="#DejaVuSans-Bold-20" transform="translate(571.533203 0)"/>
     <use xlink:href="#DejaVuSans-Bold-44" transform="translate(606.347656 0)"/>
     <use xlink:href="#DejaVuSans-Bold-69" transform="translate(689.355469 0)"/>
     <use xlink:href="#DejaVuSans-Bold-65" transform="translate(723.632812 0)"/>
     <use xlink:href="#DejaVuSans-Bold-74" transform="translate(791.455078 0)"/>
    </g>
   </g>
   <g id="text_17">
    <g id="patch_38">
     <path d="M 1003.246875 219.971141 
L 1135.153125 219.971141 
L 1135.153125 203.341766 
L 1003.246875 203.341766 
z
" style="fill: #ffffff; opacity: 0.85"/>
    </g>
    <!-- Cardiometabolic -->
    <g transform="translate(1004.786875 215.519578) scale(0.14 -0.14)">
     <use xlink:href="#DejaVuSans-Bold-43"/>
     <use xlink:href="#DejaVuSans-Bold-61" transform="translate(73.388672 0)"/>
     <use xlink:href="#DejaVuSans-Bold-72" transform="translate(140.869141 0)"/>
     <use xlink:href="#DejaVuSans-Bold-64" transform="translate(190.185547 0)"/>
     <use xlink:href="#DejaVuSans-Bold-69" transform="translate(261.767578 0)"/>
     <use xlink:href="#DejaVuSans-Bold-6f" transform="translate(296.044922 0)"/>
     <use xlink:href="#DejaVuSans-Bold-6d" transform="translate(364.746094 0)"/>
     <use xlink:href="#DejaVuSans-Bold-65" transform="translate(468.945312 0)"/>
     <use xlink:href="#DejaVuSans-Bold-74" transform="translate(536.767578 0)"/>
     <use xlink:href="#DejaVuSans-Bold-61" transform="translate(584.570312 0)"/>
     <use xlink:href="#DejaVuSans-Bold-62" transform="translate(652.050781 0)"/>
     <use xlink:href="#DejaVuSans-Bold-6f" transform="translate(723.632812 0)"/>
     <use xlink:href="#DejaVuSans-Bold-6c" transform="translate(792.333984 0)"/>
     <use xlink:href="#DejaVuSans-Bold-69" transform="translate(826.611328 0)"/>
     <use xlink:href="#DejaVuSans-Bold-63" transform="translate(860.888672 0)"/>
    </g>
   </g>
   <g id="text_18">
    <g id="patch_39">
     <path d="M 15.984 774.328875 
L 200.239156 774.328875 
L 200.239156 743.445344 
L 15.984 743.445344 
z
" style="fill: #ffffff; opacity: 0.9; stroke: #cccccc; stroke-linejoin: miter"/>
    </g>
    <!-- Directed cycles: 0 -->
    <g transform="translate(19.944 755.763625) scale(0.11 -0.11)">
     <defs>
      <path id="DejaVuSans-44" d="M 1259 4147 
L 1259 519 
L 2022 519 
Q 2988 519 3436 956 
Q 3884 1394 3884 2338 
Q 3884 3275 3436 3711 
Q 2988 4147 2022 4147 
L 1259 4147 
z
M 628 4666 
L 1925 4666 
Q 3281 4666 3915 4102 
Q 4550 3538 4550 2338 
Q 4550 1131 3912 565 
Q 3275 0 1925 0 
L 628 0 
L 628 4666 
z
" transform="scale(0.015625)"/>
      <path id="DejaVuSans-69" d="M 603 3500 
L 1178 3500 
L 1178 0 
L 603 0 
L 603 3500 
z
M 603 4863 
L 1178 4863 
L 1178 4134 
L 603 4134 
L 603 4863 
z
" transform="scale(0.015625)"/>
      <path id="DejaVuSans-72" d="M 2631 2963 
Q 2534 3019 2420 3045 
Q 2306 3072 2169 3072 
Q 1681 3072 1420 2755 
Q 1159 2438 1159 1844 
L 1159 0 
L 581 0 
L 581 3500 
L 1159 3500 
L 1159 2956 
Q 1341 3275 1631 3429 
Q 1922 3584 2338 3584 
Q 2397 3584 2469 3576 
Q 2541 3569 2628 3553 
L 2631 2963 
z
" transform="scale(0.015625)"/>
      <path id="DejaVuSans-65" d="M 3597 1894 
L 3597 1613 
L 953 1613 
Q 991 1019 1311 708 
Q 1631 397 2203 397 
Q 2534 397 2845 478 
Q 3156 559 3463 722 
L 3463 178 
Q 3153 47 2828 -22 
Q 2503 -91 2169 -91 
Q 1331 -91 842 396 
Q 353 884 353 1716 
Q 353 2575 817 3079 
Q 1281 3584 2069 3584 
Q 2775 3584 3186 3129 
Q 3597 2675 3597 1894 
z
M 3022 2063 
Q 3016 2534 2758 2815 
Q 2500 3097 2075 3097 
Q 1594 3097 1305 2825 
Q 1016 2553 972 2059 
L 3022 2063 
z
" transform="scale(0.015625)"/>
      <path id="DejaVuSans-63" d="M 3122 3366 
L 3122 2828 
Q 2878 2963 2633 3030 
Q 2388 3097 2138 3097 
Q 1578 3097 1268 2742 
Q 959 2388 959 1747 
Q 959 1106 1268 751 
Q 1578 397 2138 397 
Q 2388 397 2633 464 
Q 2878 531 3122 666 
L 3122 134 
Q 2881 22 2623 -34 
Q 2366 -91 2075 -91 
Q 1284 -91 818 406 
Q 353 903 353 1747 
Q 353 2603 823 3093 
Q 1294 3584 2113 3584 
Q 2378 3584 2631 3529 
Q 2884 3475 3122 3366 
z
" transform="scale(0.015625)"/>
      <path id="DejaVuSans-74" d="M 1172 4494 
L 1172 3500 
L 2356 3500 
L 2356 3053 
L 1172 3053 
L 1172 1153 
Q 1172 725 1289 603 
Q 1406 481 1766 481 
L 2356 481 
L 2356 0 
L 1766 0 
Q 1100 0 847 248 
Q 594 497 594 1153 
L 594 3053 
L 172 3053 
L 172 3500 
L 594 3500 
L 594 4494 
L 1172 4494 
z
" transform="scale(0.015625)"/>
      <path id="DejaVuSans-64" d="M 2906 2969 
L 2906 4863 
L 3481 4863 
L 3481 0 
L 2906 0 
L 2906 525 
Q 2725 213 2448 61 
Q 2172 -91 1784 -91 
Q 1150 -91 751 415 
Q 353 922 353 1747 
Q 353 2572 751 3078 
Q 1150 3584 1784 3584 
Q 2172 3584 2448 3432 
Q 2725 3281 2906 2969 
z
M 947 1747 
Q 947 1113 1208 752 
Q 1469 391 1925 391 
Q 2381 391 2643 752 
Q 2906 1113 2906 1747 
Q 2906 2381 2643 2742 
Q 2381 3103 1925 3103 
Q 1469 3103 1208 2742 
Q 947 2381 947 1747 
z
" transform="scale(0.015625)"/>
      <path id="DejaVuSans-20" transform="scale(0.015625)"/>
      <path id="DejaVuSans-79" d="M 2059 -325 
Q 1816 -950 1584 -1140 
Q 1353 -1331 966 -1331 
L 506 -1331 
L 506 -850 
L 844 -850 
Q 1081 -850 1212 -737 
Q 1344 -625 1503 -206 
L 1606 56 
L 191 3500 
L 800 3500 
L 1894 763 
L 2988 3500 
L 3597 3500 
L 2059 -325 
z
" transform="scale(0.015625)"/>
      <path id="DejaVuSans-6c" d="M 603 4863 
L 1178 4863 
L 1178 0 
L 603 0 
L 603 4863 
z
" transform="scale(0.015625)"/>
      <path id="DejaVuSans-73" d="M 2834 3397 
L 2834 2853 
Q 2591 2978 2328 3040 
Q 2066 3103 1784 3103 
Q 1356 3103 1142 2972 
Q 928 2841 928 2578 
Q 928 2378 1081 2264 
Q 1234 2150 1697 2047 
L 1894 2003 
Q 2506 1872 2764 1633 
Q 3022 1394 3022 966 
Q 3022 478 2636 193 
Q 2250 -91 1575 -91 
Q 1294 -91 989 -36 
Q 684 19 347 128 
L 347 722 
Q 666 556 975 473 
Q 1284 391 1588 391 
Q 1994 391 2212 530 
Q 2431 669 2431 922 
Q 2431 1156 2273 1281 
Q 2116 1406 1581 1522 
L 1381 1569 
Q 847 1681 609 1914 
Q 372 2147 372 2553 
Q 372 3047 722 3315 
Q 1072 3584 1716 3584 
Q 2034 3584 2315 3537 
Q 2597 3491 2834 3397 
z
" transform="scale(0.015625)"/>
      <path id="DejaVuSans-3a" d="M 750 794 
L 1409 794 
L 1409 0 
L 750 0 
L 750 794 
z
M 750 3309 
L 1409 3309 
L 1409 2516 
L 750 2516 
L 750 3309 
z
" transform="scale(0.015625)"/>
      <path id="DejaVuSans-30" d="M 2034 4250 
Q 1547 4250 1301 3770 
Q 1056 3291 1056 2328 
Q 1056 1369 1301 889 
Q 1547 409 2034 409 
Q 2525 409 2770 889 
Q 3016 1369 3016 2328 
Q 3016 3291 2770 3770 
Q 2525 4250 2034 4250 
z
M 2034 4750 
Q 2819 4750 3233 4129 
Q 3647 3509 3647 2328 
Q 3647 1150 3233 529 
Q 2819 -91 2034 -91 
Q 1250 -91 836 529 
Q 422 1150 422 2328 
Q 422 3509 836 4129 
Q 1250 4750 2034 4750 
z
" transform="scale(0.015625)"/>
     </defs>
     <use xlink:href="#DejaVuSans-44"/>
     <use xlink:href="#DejaVuSans-69" transform="translate(77.001953 0)"/>
     <use xlink:href="#DejaVuSans-72" transform="translate(104.785156 0)"/>
     <use xlink:href="#DejaVuSans-65" transform="translate(143.648438 0)"/>
     <use xlink:href="#DejaVuSans-63" transform="translate(205.171875 0)"/>
     <use xlink:href="#DejaVuSans-74" transform="translate(260.152344 0)"/>
     <use xlink:href="#DejaVuSans-65" transform="translate(299.361328 0)"/>
     <use xlink:href="#DejaVuSans-64" transform="translate(360.884766 0)"/>
     <use xlink:href="#DejaVuSans-20" transform="translate(424.361328 0)"/>
     <use xlink:href="#DejaVuSans-63" transform="translate(456.148438 0)"/>
     <use xlink:href="#DejaVuSans-79" transform="translate(511.128906 0)"/>
     <use xlink:href="#DejaVuSans-63" transform="translate(570.308594 0)"/>
     <use xlink:href="#DejaVuSans-6c" transform="translate(625.289062 0)"/>
     <use xlink:href="#DejaVuSans-65" transform="translate(653.072266 0)"/>
     <use xlink:href="#DejaVuSans-73" transform="translate(714.595703 0)"/>
     <use xlink:href="#DejaVuSans-3a" transform="translate(766.695312 0)"/>
     <use xlink:href="#DejaVuSans-20" transform="translate(800.386719 0)"/>
     <use xlink:href="#DejaVuSans-30" transform="translate(832.173828 0)"/>
    </g>
    <!-- Undirected unresolved cycles: 0 -->
    <g transform="translate(19.944 768.081219) scale(0.11 -0.11)">
     <defs>
      <path id="DejaVuSans-55" d="M 556 4666 
L 1191 4666 
L 1191 1831 
Q 1191 1081 1462 751 
Q 1734 422 2344 422 
Q 2950 422 3222 751 
Q 3494 1081 3494 1831 
L 3494 4666 
L 4128 4666 
L 4128 1753 
Q 4128 841 3676 375 
Q 3225 -91 2344 -91 
Q 1459 -91 1007 375 
Q 556 841 556 1753 
L 556 4666 
z
" transform="scale(0.015625)"/>
      <path id="DejaVuSans-6e" d="M 3513 2113 
L 3513 0 
L 2938 0 
L 2938 2094 
Q 2938 2591 2744 2837 
Q 2550 3084 2163 3084 
Q 1697 3084 1428 2787 
Q 1159 2491 1159 1978 
L 1159 0 
L 581 0 
L 581 3500 
L 1159 3500 
L 1159 2956 
Q 1366 3272 1645 3428 
Q 1925 3584 2291 3584 
Q 2894 3584 3203 3211 
Q 3513 2838 3513 2113 
z
" transform="scale(0.015625)"/>
      <path id="DejaVuSans-75" d="M 544 1381 
L 544 3500 
L 1119 3500 
L 1119 1403 
Q 1119 906 1312 657 
Q 1506 409 1894 409 
Q 2359 409 2629 706 
Q 2900 1003 2900 1516 
L 2900 3500 
L 3475 3500 
L 3475 0 
L 2900 0 
L 2900 538 
Q 2691 219 2414 64 
Q 2138 -91 1772 -91 
Q 1169 -91 856 284 
Q 544 659 544 1381 
z
M 1991 3584 
L 1991 3584 
z
" transform="scale(0.015625)"/>
      <path id="DejaVuSans-6f" d="M 1959 3097 
Q 1497 3097 1228 2736 
Q 959 2375 959 1747 
Q 959 1119 1226 758 
Q 1494 397 1959 397 
Q 2419 397 2687 759 
Q 2956 1122 2956 1747 
Q 2956 2369 2687 2733 
Q 2419 3097 1959 3097 
z
M 1959 3584 
Q 2709 3584 3137 3096 
Q 3566 2609 3566 1747 
Q 3566 888 3137 398 
Q 2709 -91 1959 -91 
Q 1206 -91 779 398 
Q 353 888 353 1747 
Q 353 2609 779 3096 
Q 1206 3584 1959 3584 
z
" transform="scale(0.015625)"/>
      <path id="DejaVuSans-76" d="M 191 3500 
L 800 3500 
L 1894 563 
L 2988 3500 
L 3597 3500 
L 2284 0 
L 1503 0 
L 191 3500 
z
" transform="scale(0.015625)"/>
     </defs>
     <use xlink:href="#DejaVuSans-55"/>
     <use xlink:href="#DejaVuSans-6e" transform="translate(73.193359 0)"/>
     <use xlink:href="#DejaVuSans-64" transform="translate(136.572266 0)"/>
     <use xlink:href="#DejaVuSans-69" transform="translate(200.048828 0)"/>
     <use xlink:href="#DejaVuSans-72" transform="translate(227.832031 0)"/>
     <use xlink:href="#DejaVuSans-65" transform="translate(266.695312 0)"/>
     <use xlink:href="#DejaVuSans-63" transform="translate(328.21875 0)"/>
     <use xlink:href="#DejaVuSans-74" transform="translate(383.199219 0)"/>
     <use xlink:href="#DejaVuSans-65" transform="translate(422.408203 0)"/>
     <use xlink:href="#DejaVuSans-64" transform="translate(483.931641 0)"/>
     <use xlink:href="#DejaVuSans-20" transform="translate(547.408203 0)"/>
     <use xlink:href="#DejaVuSans-75" transform="translate(579.195312 0)"/>
     <use xlink:href="#DejaVuSans-6e" transform="translate(642.574219 0)"/>
     <use xlink:href="#DejaVuSans-72" transform="translate(705.953125 0)"/>
     <use xlink:href="#DejaVuSans-65" transform="translate(744.816406 0)"/>
     <use xlink:href="#DejaVuSans-73" transform="translate(806.339844 0)"/>
     <use xlink:href="#DejaVuSans-6f" transform="translate(858.439453 0)"/>
     <use xlink:href="#DejaVuSans-6c" transform="translate(919.621094 0)"/>
     <use xlink:href="#DejaVuSans-76" transform="translate(947.404297 0)"/>
     <use xlink:href="#DejaVuSans-65" transform="translate(1006.583984 0)"/>
     <use xlink:href="#DejaVuSans-64" transform="translate(1068.107422 0)"/>
     <use xlink:href="#DejaVuSans-20" transform="translate(1131.583984 0)"/>
     <use xlink:href="#DejaVuSans-63" transform="translate(1163.371094 0)"/>
     <use xlink:href="#DejaVuSans-79" transform="translate(1218.351562 0)"/>
     <use xlink:href="#DejaVuSans-63" transform="translate(1277.53125 0)"/>
     <use xlink:href="#DejaVuSans-6c" transform="translate(1332.511719 0)"/>
     <use xlink:href="#DejaVuSans-65" transform="translate(1360.294922 0)"/>
     <use xlink:href="#DejaVuSans-73" transform="translate(1421.818359 0)"/>
     <use xlink:href="#DejaVuSans-3a" transform="translate(1473.917969 0)"/>
     <use xlink:href="#DejaVuSans-20" transform="translate(1507.609375 0)"/>
     <use xlink:href="#DejaVuSans-30" transform="translate(1539.396484 0)"/>
    </g>
   </g>
   <g id="text_19">
    <!-- directlingam measure pwling threshold 0p080 constraint unconstrained -->
    <g transform="translate(285.396875 22.396875) scale(0.2 -0.2)">
     <defs>
      <path id="DejaVuSans-67" d="M 2906 1791 
Q 2906 2416 2648 2759 
Q 2391 3103 1925 3103 
Q 1463 3103 1205 2759 
Q 947 2416 947 1791 
Q 947 1169 1205 825 
Q 1463 481 1925 481 
Q 2391 481 2648 825 
Q 2906 1169 2906 1791 
z
M 3481 434 
Q 3481 -459 3084 -895 
Q 2688 -1331 1869 -1331 
Q 1566 -1331 1297 -1286 
Q 1028 -1241 775 -1147 
L 775 -588 
Q 1028 -725 1275 -790 
Q 1522 -856 1778 -856 
Q 2344 -856 2625 -561 
Q 2906 -266 2906 331 
L 2906 616 
Q 2728 306 2450 153 
Q 2172 0 1784 0 
Q 1141 0 747 490 
Q 353 981 353 1791 
Q 353 2603 747 3093 
Q 1141 3584 1784 3584 
Q 2172 3584 2450 3431 
Q 2728 3278 2906 2969 
L 2906 3500 
L 3481 3500 
L 3481 434 
z
" transform="scale(0.015625)"/>
      <path id="DejaVuSans-61" d="M 2194 1759 
Q 1497 1759 1228 1600 
Q 959 1441 959 1056 
Q 959 750 1161 570 
Q 1363 391 1709 391 
Q 2188 391 2477 730 
Q 2766 1069 2766 1631 
L 2766 1759 
L 2194 1759 
z
M 3341 1997 
L 3341 0 
L 2766 0 
L 2766 531 
Q 2569 213 2275 61 
Q 1981 -91 1556 -91 
Q 1019 -91 701 211 
Q 384 513 384 1019 
Q 384 1609 779 1909 
Q 1175 2209 1959 2209 
L 2766 2209 
L 2766 2266 
Q 2766 2663 2505 2880 
Q 2244 3097 1772 3097 
Q 1472 3097 1187 3025 
Q 903 2953 641 2809 
L 641 3341 
Q 956 3463 1253 3523 
Q 1550 3584 1831 3584 
Q 2591 3584 2966 3190 
Q 3341 2797 3341 1997 
z
" transform="scale(0.015625)"/>
      <path id="DejaVuSans-6d" d="M 3328 2828 
Q 3544 3216 3844 3400 
Q 4144 3584 4550 3584 
Q 5097 3584 5394 3201 
Q 5691 2819 5691 2113 
L 5691 0 
L 5113 0 
L 5113 2094 
Q 5113 2597 4934 2840 
Q 4756 3084 4391 3084 
Q 3944 3084 3684 2787 
Q 3425 2491 3425 1978 
L 3425 0 
L 2847 0 
L 2847 2094 
Q 2847 2600 2669 2842 
Q 2491 3084 2119 3084 
Q 1678 3084 1418 2786 
Q 1159 2488 1159 1978 
L 1159 0 
L 581 0 
L 581 3500 
L 1159 3500 
L 1159 2956 
Q 1356 3278 1631 3431 
Q 1906 3584 2284 3584 
Q 2666 3584 2933 3390 
Q 3200 3197 3328 2828 
z
" transform="scale(0.015625)"/>
      <path id="DejaVuSans-70" d="M 1159 525 
L 1159 -1331 
L 581 -1331 
L 581 3500 
L 1159 3500 
L 1159 2969 
Q 1341 3281 1617 3432 
Q 1894 3584 2278 3584 
Q 2916 3584 3314 3078 
Q 3713 2572 3713 1747 
Q 3713 922 3314 415 
Q 2916 -91 2278 -91 
Q 1894 -91 1617 61 
Q 1341 213 1159 525 
z
M 3116 1747 
Q 3116 2381 2855 2742 
Q 2594 3103 2138 3103 
Q 1681 3103 1420 2742 
Q 1159 2381 1159 1747 
Q 1159 1113 1420 752 
Q 1681 391 2138 391 
Q 2594 391 2855 752 
Q 3116 1113 3116 1747 
z
" transform="scale(0.015625)"/>
      <path id="DejaVuSans-77" d="M 269 3500 
L 844 3500 
L 1563 769 
L 2278 3500 
L 2956 3500 
L 3675 769 
L 4391 3500 
L 4966 3500 
L 4050 0 
L 3372 0 
L 2619 2869 
L 1863 0 
L 1184 0 
L 269 3500 
z
" transform="scale(0.015625)"/>
      <path id="DejaVuSans-68" d="M 3513 2113 
L 3513 0 
L 2938 0 
L 2938 2094 
Q 2938 2591 2744 2837 
Q 2550 3084 2163 3084 
Q 1697 3084 1428 2787 
Q 1159 2491 1159 1978 
L 1159 0 
L 581 0 
L 581 4863 
L 1159 4863 
L 1159 2956 
Q 1366 3272 1645 3428 
Q 1925 3584 2291 3584 
Q 2894 3584 3203 3211 
Q 3513 2838 3513 2113 
z
" transform="scale(0.015625)"/>
      <path id="DejaVuSans-38" d="M 2034 2216 
Q 1584 2216 1326 1975 
Q 1069 1734 1069 1313 
Q 1069 891 1326 650 
Q 1584 409 2034 409 
Q 2484 409 2743 651 
Q 3003 894 3003 1313 
Q 3003 1734 2745 1975 
Q 2488 2216 2034 2216 
z
M 1403 2484 
Q 997 2584 770 2862 
Q 544 3141 544 3541 
Q 544 4100 942 4425 
Q 1341 4750 2034 4750 
Q 2731 4750 3128 4425 
Q 3525 4100 3525 3541 
Q 3525 3141 3298 2862 
Q 3072 2584 2669 2484 
Q 3125 2378 3379 2068 
Q 3634 1759 3634 1313 
Q 3634 634 3220 271 
Q 2806 -91 2034 -91 
Q 1263 -91 848 271 
Q 434 634 434 1313 
Q 434 1759 690 2068 
Q 947 2378 1403 2484 
z
M 1172 3481 
Q 1172 3119 1398 2916 
Q 1625 2713 2034 2713 
Q 2441 2713 2670 2916 
Q 2900 3119 2900 3481 
Q 2900 3844 2670 4047 
Q 2441 4250 2034 4250 
Q 1625 4250 1398 4047 
Q 1172 3844 1172 3481 
z
" transform="scale(0.015625)"/>
     </defs>
     <use xlink:href="#DejaVuSans-64"/>
     <use xlink:href="#DejaVuSans-69" transform="translate(63.476562 0)"/>
     <use xlink:href="#DejaVuSans-72" transform="translate(91.259766 0)"/>
     <use xlink:href="#DejaVuSans-65" transform="translate(130.123047 0)"/>
     <use xlink:href="#DejaVuSans-63" transform="translate(191.646484 0)"/>
     <use xlink:href="#DejaVuSans-74" transform="translate(246.626953 0)"/>
     <use xlink:href="#DejaVuSans-6c" transform="translate(285.835938 0)"/>
     <use xlink:href="#DejaVuSans-69" transform="translate(313.619141 0)"/>
     <use xlink:href="#DejaVuSans-6e" transform="translate(341.402344 0)"/>
     <use xlink:href="#DejaVuSans-67" transform="translate(404.78125 0)"/>
     <use xlink:href="#DejaVuSans-61" transform="translate(468.257812 0)"/>
     <use xlink:href="#DejaVuSans-6d" transform="translate(529.537109 0)"/>
     <use xlink:href="#DejaVuSans-20" transform="translate(626.949219 0)"/>
     <use xlink:href="#DejaVuSans-6d" transform="translate(658.736328 0)"/>
     <use xlink:href="#DejaVuSans-65" transform="translate(756.148438 0)"/>
     <use xlink:href="#DejaVuSans-61" transform="translate(817.671875 0)"/>
     <use xlink:href="#DejaVuSans-73" transform="translate(878.951172 0)"/>
     <use xlink:href="#DejaVuSans-75" transform="translate(931.050781 0)"/>
     <use xlink:href="#DejaVuSans-72" transform="translate(994.429688 0)"/>
     <use xlink:href="#DejaVuSans-65" transform="translate(1033.292969 0)"/>
     <use xlink:href="#DejaVuSans-20" transform="translate(1094.816406 0)"/>
     <use xlink:href="#DejaVuSans-70" transform="translate(1126.603516 0)"/>
     <use xlink:href="#DejaVuSans-77" transform="translate(1190.080078 0)"/>
     <use xlink:href="#DejaVuSans-6c" transform="translate(1271.867188 0)"/>
     <use xlink:href="#DejaVuSans-69" transform="translate(1299.650391 0)"/>
     <use xlink:href="#DejaVuSans-6e" transform="translate(1327.433594 0)"/>
     <use xlink:href="#DejaVuSans-67" transform="translate(1390.8125 0)"/>
     <use xlink:href="#DejaVuSans-20" transform="translate(1454.289062 0)"/>
     <use xlink:href="#DejaVuSans-74" transform="translate(1486.076172 0)"/>
     <use xlink:href="#DejaVuSans-68" transform="translate(1525.285156 0)"/>
     <use xlink:href="#DejaVuSans-72" transform="translate(1588.664062 0)"/>
     <use xlink:href="#DejaVuSans-65" transform="translate(1627.527344 0)"/>
     <use xlink:href="#DejaVuSans-73" transform="translate(1689.050781 0)"/>
     <use xlink:href="#DejaVuSans-68" transform="translate(1741.150391 0)"/>
     <use xlink:href="#DejaVuSans-6f" transform="translate(1804.529297 0)"/>
     <use xlink:href="#DejaVuSans-6c" transform="translate(1865.710938 0)"/>
     <use xlink:href="#DejaVuSans-64" transform="translate(1893.494141 0)"/>
     <use xlink:href="#DejaVuSans-20" transform="translate(1956.970703 0)"/>
     <use xlink:href="#DejaVuSans-30" transform="translate(1988.757812 0)"/>
     <use xlink:href="#DejaVuSans-70" transform="translate(2052.380859 0)"/>
     <use xlink:href="#DejaVuSans-30" transform="translate(2115.857422 0)"/>
     <use xlink:href="#DejaVuSans-38" transform="translate(2179.480469 0)"/>
     <use xlink:href="#DejaVuSans-30" transform="translate(2243.103516 0)"/>
     <use xlink:href="#DejaVuSans-20" transform="translate(2306.726562 0)"/>
     <use xlink:href="#DejaVuSans-63" transform="translate(2338.513672 0)"/>
     <use xlink:href="#DejaVuSans-6f" transform="translate(2393.494141 0)"/>
     <use xlink:href="#DejaVuSans-6e" transform="translate(2454.675781 0)"/>
     <use xlink:href="#DejaVuSans-73" transform="translate(2518.054688 0)"/>
     <use xlink:href="#DejaVuSans-74" transform="translate(2570.154297 0)"/>
     <use xlink:href="#DejaVuSans-72" transform="translate(2609.363281 0)"/>
     <use xlink:href="#DejaVuSans-61" transform="translate(2650.476562 0)"/>
     <use xlink:href="#DejaVuSans-69" transform="translate(2711.755859 0)"/>
     <use xlink:href="#DejaVuSans-6e" transform="translate(2739.539062 0)"/>
     <use xlink:href="#DejaVuSans-74" transform="translate(2802.917969 0)"/>
     <use xlink:href="#DejaVuSans-20" transform="translate(2842.126953 0)"/>
     <use xlink:href="#DejaVuSans-75" transform="translate(2873.914062 0)"/>
     <use xlink:href="#DejaVuSans-6e" transform="translate(2937.292969 0)"/>
     <use xlink:href="#DejaVuSans-63" transform="translate(3000.671875 0)"/>
     <use xlink:href="#DejaVuSans-6f" transform="translate(3055.652344 0)"/>
     <use xlink:href="#DejaVuSans-6e" transform="translate(3116.833984 0)"/>
     <use xlink:href="#DejaVuSans-73" transform="translate(3180.212891 0)"/>
     <use xlink:href="#DejaVuSans-74" transform="translate(3232.3125 0)"/>
     <use xlink:href="#DejaVuSans-72" transform="translate(3271.521484 0)"/>
     <use xlink:href="#DejaVuSans-61" transform="translate(3312.634766 0)"/>
     <use xlink:href="#DejaVuSans-69" transform="translate(3373.914062 0)"/>
     <use xlink:href="#DejaVuSans-6e" transform="translate(3401.697266 0)"/>
     <use xlink:href="#DejaVuSans-65" transform="translate(3465.076172 0)"/>
     <use xlink:href="#DejaVuSans-64" transform="translate(3526.599609 0)"/>
    </g>
   </g>
   <g id="legend_1">
    <g id="patch_40">
     <path d="M 1057.333125 771.74233 
L 1273.2 771.74233 
Q 1275.6 771.74233 1275.6 769.34233 
L 1275.6 717.70108 
Q 1275.6 715.30108 1273.2 715.30108 
L 1057.333125 715.30108 
Q 1054.933125 715.30108 1054.933125 717.70108 
L 1054.933125 769.34233 
Q 1054.933125 771.74233 1057.333125 771.74233 
z
" style="fill: #ffffff; opacity: 0.8; stroke: #cccccc; stroke-linejoin: miter"/>
    </g>
    <g id="line2d_4">
     <path d="M 1059.733125 725.019205 
L 1071.733125 725.019205 
L 1083.733125 725.019205 
" style="fill: none; stroke: #333333; stroke-width: 2.1; stroke-linecap: square"/>
    </g>
    <g id="text_20">
     <!-- Directed edge -->
     <g transform="translate(1093.333125 729.219205) scale(0.12 -0.12)">
      <use xlink:href="#DejaVuSans-44"/>
      <use xlink:href="#DejaVuSans-69" transform="translate(77.001953 0)"/>
      <use xlink:href="#DejaVuSans-72" transform="translate(104.785156 0)"/>
      <use xlink:href="#DejaVuSans-65" transform="translate(143.648438 0)"/>
      <use xlink:href="#DejaVuSans-63" transform="translate(205.171875 0)"/>
      <use xlink:href="#DejaVuSans-74" transform="translate(260.152344 0)"/>
      <use xlink:href="#DejaVuSans-65" transform="translate(299.361328 0)"/>
      <use xlink:href="#DejaVuSans-64" transform="translate(360.884766 0)"/>
      <use xlink:href="#DejaVuSans-20" transform="translate(424.361328 0)"/>
      <use xlink:href="#DejaVuSans-65" transform="translate(456.148438 0)"/>
      <use xlink:href="#DejaVuSans-64" transform="translate(517.671875 0)"/>
      <use xlink:href="#DejaVuSans-67" transform="translate(581.148438 0)"/>
      <use xlink:href="#DejaVuSans-65" transform="translate(644.625 0)"/>
     </g>
    </g>
    <g id="line2d_5">
     <path d="M 1059.733125 742.632955 
L 1071.733125 742.632955 
L 1083.733125 742.632955 
" style="fill: none; stroke-dasharray: 9.62,4.16; stroke-dashoffset: 0; stroke: #777777; stroke-width: 2.6"/>
    </g>
    <g id="text_21">
     <!-- Undirected / unresolved edge -->
     <g transform="translate(1093.333125 746.832955) scale(0.12 -0.12)">
      <defs>
       <path id="DejaVuSans-2f" d="M 1625 4666 
L 2156 4666 
L 531 -594 
L 0 -594 
L 1625 4666 
z
" transform="scale(0.015625)"/>
      </defs>
      <use xlink:href="#DejaVuSans-55"/>
      <use xlink:href="#DejaVuSans-6e" transform="translate(73.193359 0)"/>
      <use xlink:href="#DejaVuSans-64" transform="translate(136.572266 0)"/>
      <use xlink:href="#DejaVuSans-69" transform="translate(200.048828 0)"/>
      <use xlink:href="#DejaVuSans-72" transform="translate(227.832031 0)"/>
      <use xlink:href="#DejaVuSans-65" transform="translate(266.695312 0)"/>
      <use xlink:href="#DejaVuSans-63" transform="translate(328.21875 0)"/>
      <use xlink:href="#DejaVuSans-74" transform="translate(383.199219 0)"/>
      <use xlink:href="#DejaVuSans-65" transform="translate(422.408203 0)"/>
      <use xlink:href="#DejaVuSans-64" transform="translate(483.931641 0)"/>
      <use xlink:href="#DejaVuSans-20" transform="translate(547.408203 0)"/>
      <use xlink:href="#DejaVuSans-2f" transform="translate(579.195312 0)"/>
      <use xlink:href="#DejaVuSans-20" transform="translate(612.886719 0)"/>
      <use xlink:href="#DejaVuSans-75" transform="translate(644.673828 0)"/>
      <use xlink:href="#DejaVuSans-6e" transform="translate(708.052734 0)"/>
      <use xlink:href="#DejaVuSans-72" transform="translate(771.431641 0)"/>
      <use xlink:href="#DejaVuSans-65" transform="translate(810.294922 0)"/>
      <use xlink:href="#DejaVuSans-73" transform="translate(871.818359 0)"/>
      <use xlink:href="#DejaVuSans-6f" transform="translate(923.917969 0)"/>
      <use xlink:href="#DejaVuSans-6c" transform="translate(985.099609 0)"/>
      <use xlink:href="#DejaVuSans-76" transform="translate(1012.882812 0)"/>
      <use xlink:href="#DejaVuSans-65" transform="translate(1072.0625 0)"/>
      <use xlink:href="#DejaVuSans-64" transform="translate(1133.585938 0)"/>
      <use xlink:href="#DejaVuSans-20" transform="translate(1197.0625 0)"/>
      <use xlink:href="#DejaVuSans-65" transform="translate(1228.849609 0)"/>
      <use xlink:href="#DejaVuSans-64" transform="translate(1290.373047 0)"/>
      <use xlink:href="#DejaVuSans-67" transform="translate(1353.849609 0)"/>
      <use xlink:href="#DejaVuSans-65" transform="translate(1417.326172 0)"/>
     </g>
    </g>
    <g id="line2d_6">
     <path d="M 1059.733125 760.246705 
L 1071.733125 760.246705 
L 1083.733125 760.246705 
" style="fill: none; stroke: #ff0000; stroke-width: 3.2; stroke-linecap: square"/>
    </g>
    <g id="text_22">
     <!-- Directed cycle edge -->
     <g transform="translate(1093.333125 764.446705) scale(0.12 -0.12)">
      <use xlink:href="#DejaVuSans-44"/>
      <use xlink:href="#DejaVuSans-69" transform="translate(77.001953 0)"/>
      <use xlink:href="#DejaVuSans-72" transform="translate(104.785156 0)"/>
      <use xlink:href="#DejaVuSans-65" transform="translate(143.648438 0)"/>
      <use xlink:href="#DejaVuSans-63" transform="translate(205.171875 0)"/>
      <use xlink:href="#DejaVuSans-74" transform="translate(260.152344 0)"/>
      <use xlink:href="#DejaVuSans-65" transform="translate(299.361328 0)"/>
      <use xlink:href="#DejaVuSans-64" transform="translate(360.884766 0)"/>
      <use xlink:href="#DejaVuSans-20" transform="translate(424.361328 0)"/>
      <use xlink:href="#DejaVuSans-63" transform="translate(456.148438 0)"/>
      <use xlink:href="#DejaVuSans-79" transform="translate(511.128906 0)"/>
      <use xlink:href="#DejaVuSans-63" transform="translate(570.308594 0)"/>
      <use xlink:href="#DejaVuSans-6c" transform="translate(625.289062 0)"/>
      <use xlink:href="#DejaVuSans-65" transform="translate(653.072266 0)"/>
      <use xlink:href="#DejaVuSans-20" transform="translate(714.595703 0)"/>
      <use xlink:href="#DejaVuSans-65" transform="translate(746.382812 0)"/>
      <use xlink:href="#DejaVuSans-64" transform="translate(807.90625 0)"/>
      <use xlink:href="#DejaVuSans-67" transform="translate(871.382812 0)"/>
      <use xlink:href="#DejaVuSans-65" transform="translate(934.859375 0)"/>
     </g>
    </g>
   </g>
  </g>
 </g>
 <defs>
  <clipPath id="p9678dc3606">
   <rect x="7.2" y="40.396875" width="1274.4" height="737.345455"/>
  </clipPath>
 </defs>
</svg>
